<svg xmlns="http://www.w3.org/2000/svg" width="1440" height="560" preserveAspectRatio="none"><g mask="url(&quot;#a&quot;)" fill="none"><path clip-path="url(&quot;#b&quot;)" fill="url(#c)" transform="rotate(206.44 .84 555.27)" d="M-57.24 497.19H58.92v116.16H-57.24z"/><path d="m1288.06 103.04-12.62-2.2-.62-12.79-12.62-2.2-.62-12.79-12.62-2.2-.62-12.79m45.71 39.68-12.61-2.2-.63-12.8-12.61-2.2-.62-12.79-12.62-2.2-.62-12.79m45.71 39.68-12.62-2.2-.62-12.79-12.61-2.2-.63-12.79-12.61-2.2-.63-12.79" stroke="rgba(37, 52, 218, 1)" stroke-width="2.82" stroke-dasharray="4, 4"/><circle r="46.667" cx="686.81" cy="53.65" fill="rgba(69, 83, 238, 1)"/><path clip-path="url(&quot;#d&quot;)" fill="url(#e)" transform="rotate(116.92 1057.58 539.02)" d="M991.58 473.02h132v132h-132z"/><path d="m190.07 44.99-12.34-3.41.62-12.79-12.34-3.41.62-12.8-12.35-3.41.62-12.79m41.65 43.93-12.34-3.42.62-12.79-12.34-3.41.62-12.79-12.34-3.42.62-12.79" stroke="rgba(89, 103, 255, 1)" stroke-width="2.64"/><path d="m1236.66 399.39-7.68 10.25-11.69-5.25-7.68 10.25-11.68-5.25-7.69 10.24-11.68-5.24" stroke="rgba(58, 74, 249, 1)" stroke-width="2.18"/><path clip-path="url(&quot;#f&quot;)" fill="url(#g)" transform="rotate(172.68 117.85 428.31)" d="M-25.19 285.27h286.08v286.08H-25.19z"/><path clip-path="url(&quot;#h&quot;)" fill="url(#i)" transform="rotate(121.22 176.6 395.17)" d="M43.76 262.33h265.68v265.68H43.76z"/><path clip-path="url(&quot;#j&quot;)" fill="url(#k)" transform="rotate(249.94 1026.26 558.43)" d="M936.04 468.21h180.44v180.44H936.04z"/><circle r="48.704" cx="109.52" cy="253.49" fill="rgba(89, 103, 255, 1)"/><path d="M1355.31 379.49a5.6 5.6 0 1 0 9.5 5.94 5.6 5.6 0 1 0-9.5-5.94zm13.57 8.48a5.6 5.6 0 1 0 9.5 5.93 5.6 5.6 0 1 0-9.5-5.93zm13.57 8.48a5.6 5.6 0 1 0 9.5 5.93 5.6 5.6 0 1 0-9.5-5.93zm13.57 8.47a5.6 5.6 0 1 0 9.5 5.94 5.6 5.6 0 1 0-9.5-5.94zm-76.32-28.81a5.6 5.6 0 1 0 9.49 5.93 5.6 5.6 0 1 0-9.49-5.93zm13.57 8.48a5.6 5.6 0 1 0 9.49 5.93 5.6 5.6 0 1 0-9.49-5.93zm13.57 8.47a5.6 5.6 0 1 0 9.5 5.94 5.6 5.6 0 1 0-9.5-5.94zm13.57 8.48a5.6 5.6 0 1 0 9.5 5.93 5.6 5.6 0 1 0-9.5-5.93zm-76.33-28.81a5.6 5.6 0 1 0 9.5 5.93 5.6 5.6 0 1 0-9.5-5.93zm13.57 8.48a5.6 5.6 0 1 0 9.5 5.93 5.6 5.6 0 1 0-9.5-5.93zm13.57 8.47a5.6 5.6 0 1 0 9.5 5.93 5.6 5.6 0 1 0-9.5-5.93zm13.57 8.48a5.6 5.6 0 1 0 9.5 5.93 5.6 5.6 0 1 0-9.5-5.93z" fill="rgba(58, 74, 249, 1)"/><path clip-path="url(&quot;#l&quot;)" fill="url(#m)" transform="rotate(95.47 1301.71 547.6)" d="M1210.27 456.16h182.88v182.88h-182.88z"/></g><defs><clipPath id="f"><circle r="71.52" cx="117.85" cy="428.31"/></clipPath><clipPath id="l"><circle r="45.72" cx="1301.71" cy="547.6"/></clipPath><clipPath id="b"><circle r="29.04" cx=".84" cy="555.27"/></clipPath><clipPath id="j"><circle r="45.11" cx="1026.26" cy="558.43"/></clipPath><clipPath id="d"><circle r="33" cx="1057.58" cy="539.02"/></clipPath><clipPath id="h"><circle r="66.42" cx="176.6" cy="395.17"/></clipPath><pattern x="0" y="0" width="116.16" height="9.68" patternUnits="userSpaceOnUse" id="c"><path fill="rgba(89, 103, 255, 1)" d="M0 0h116.16v4.84H0z"/><path fill="rgba(0, 0, 0, 0)" d="M0 4.84h116.16v4.84H0z"/></pattern><pattern x="0" y="0" width="265.68" height="7.38" patternUnits="userSpaceOnUse" id="i"><path fill="rgba(69, 83, 238, 1)" d="M0 0h265.68v3.69H0z"/><path fill="rgba(0, 0, 0, 0)" d="M0 3.69h265.68v3.69H0z"/></pattern><pattern x="0" y="0" width="286.08" height="8.94" patternUnits="userSpaceOnUse" id="g"><path fill="rgba(58, 74, 249, 1)" d="M0 0h286.08v4.47H0z"/><path fill="rgba(0, 0, 0, 0)" d="M0 4.47h286.08v4.47H0z"/></pattern><pattern x="0" y="0" width="6.94" height="6.94" patternUnits="userSpaceOnUse" id="k"><path d="M0 6.94 3.47 0l3.47 6.94" stroke="rgba(37, 52, 218, 1)" fill="none"/></pattern><pattern x="0" y="0" width="6" height="6" patternUnits="userSpaceOnUse" id="e"><path d="M3 1v4M1 3h4" stroke="rgba(58, 74, 249, 1)" fill="none" stroke-width="1.24"/></pattern><pattern x="0" y="0" width="182.88" height="10.16" patternUnits="userSpaceOnUse" id="m"><path fill="rgba(89, 103, 255, 1)" d="M0 0h182.88v5.08H0z"/><path fill="rgba(0, 0, 0, 0)" d="M0 5.08h182.88v5.08H0z"/></pattern><mask id="a"><path fill="#fff" d="M0 0h1440v560H0z"/></mask></defs></svg>