<svg xmlns="http://www.w3.org/2000/svg" width="1440" height="560" fill="none" viewBox="0 0 1440 560"><g clip-path="url(#clip0_103_3)"><path fill="#007CF0" d="M1382.27 372.9L1387.13 256.6L1324.72 254.774L1382.27 372.9Z"/><path stroke="#2594FC" stroke-dasharray="3 3" stroke-width="2.53" d="M1422.26 72.0699C1421.93 71.41 1421.48 70.8206 1420.93 70.3353C1420.38 69.85 1419.73 69.4784 1419.04 69.2416C1418.34 69.0048 1417.6 68.9075 1416.87 68.9552C1416.13 69.003 1415.42 69.1949 1414.76 69.5199C1414.1 69.8449 1413.51 70.2967 1413.02 70.8495C1412.54 71.4023 1412.17 72.0453 1411.93 72.7418C1411.69 73.4382 1411.6 74.1745 1411.64 74.9085C1411.69 75.6425 1411.88 76.36 1412.21 77.0199C1412.53 77.6798 1412.98 78.2692 1413.54 78.7545C1414.09 79.2397 1414.73 79.6114 1415.43 79.8482C1416.13 80.085 1416.86 80.1823 1417.6 80.1345C1418.33 80.0868 1419.05 79.8949 1419.71 79.5699C1420.37 79.2449 1420.96 78.793 1421.44 78.2402C1421.93 77.6874 1422.3 77.0444 1422.54 76.348C1422.77 75.6516 1422.87 74.9153 1422.82 74.1813C1422.77 73.4472 1422.58 72.7298 1422.26 72.0699V72.0699ZM1407.91 79.1399C1407.59 78.4676 1407.14 77.8652 1406.59 77.3676C1406.04 76.8701 1405.39 76.4874 1404.69 76.2418C1403.99 75.9962 1403.25 75.8927 1402.51 75.9373C1401.76 75.9819 1401.04 76.1738 1400.37 76.5016C1399.7 76.8294 1399.11 77.2867 1398.62 77.8468C1398.13 78.4069 1397.76 79.0586 1397.53 79.764C1397.29 80.4693 1397.2 81.2142 1397.26 81.9552C1397.32 82.6962 1397.52 83.4184 1397.86 84.0799C1398.17 84.7521 1398.62 85.3546 1399.17 85.8521C1399.73 86.3497 1400.37 86.7324 1401.07 86.9779C1401.77 87.2235 1402.52 87.327 1403.26 87.2824C1404 87.2378 1404.73 87.046 1405.39 86.7182C1406.06 86.3903 1406.66 85.933 1407.14 85.3729C1407.63 84.8128 1408 84.1611 1408.24 83.4558C1408.47 82.7504 1408.56 82.0055 1408.51 81.2646C1408.45 80.5236 1408.25 79.8013 1407.91 79.1399ZM1393.55 86.1999C1392.89 84.8672 1391.73 83.8498 1390.33 83.3716C1388.92 82.8934 1387.38 82.9935 1386.05 83.6499C1384.71 84.3063 1383.7 85.4652 1383.22 86.8717C1382.74 88.2783 1382.84 89.8172 1383.5 91.1499C1384.15 92.4826 1385.31 93.5 1386.72 93.9782C1387.42 94.215 1388.15 94.3123 1388.89 94.2645C1389.62 94.2168 1390.34 94.0249 1391 93.6999C1391.66 93.3749 1392.25 92.923 1392.73 92.3702C1393.22 91.8174 1393.59 91.1744 1393.83 90.478C1394.06 89.7816 1394.16 89.0453 1394.11 88.3113C1394.06 87.5772 1393.87 86.8598 1393.55 86.1999ZM1379.2 93.2699C1378.87 92.61 1378.42 92.0206 1377.87 91.5353C1377.31 91.05 1376.67 90.6784 1375.98 90.4416C1375.28 90.2048 1374.54 90.1075 1373.81 90.1552C1373.07 90.203 1372.36 90.3948 1371.7 90.7199C1371.04 91.0449 1370.45 91.4967 1369.96 92.0495C1369.48 92.6023 1369.11 93.2453 1368.87 93.9417C1368.63 94.6382 1368.54 95.3744 1368.58 96.1085C1368.63 96.8425 1368.82 97.56 1369.15 98.2199C1369.8 99.5526 1370.96 100.57 1372.37 101.048C1373.78 101.526 1375.31 101.426 1376.65 100.77C1377.98 100.113 1379 98.9545 1379.48 97.548C1379.95 96.1415 1379.85 94.6026 1379.2 93.2699ZM1443.9 43.5799C1443.59 42.8958 1443.14 42.281 1442.59 41.772C1442.04 41.2631 1441.39 40.8704 1440.68 40.6173C1439.98 40.3642 1439.23 40.2558 1438.48 40.2987C1437.73 40.3416 1436.99 40.5348 1436.32 40.8668C1435.65 41.1989 1435.05 41.663 1434.56 42.2316C1434.07 42.8002 1433.69 43.4616 1433.46 44.1765C1433.23 44.8914 1433.15 45.6453 1433.22 46.3931C1433.29 47.141 1433.5 47.8677 1433.86 48.5299C1434.17 49.2139 1434.61 49.8287 1435.16 50.3377C1435.72 50.8467 1436.36 51.2394 1437.07 51.4925C1437.78 51.7456 1438.53 51.8539 1439.28 51.8111C1440.03 51.7682 1440.76 51.575 1441.44 51.2429C1442.11 50.9109 1442.71 50.4467 1443.2 49.8782C1443.69 49.3096 1444.06 48.6482 1444.29 47.9332C1444.52 47.2183 1444.6 46.4645 1444.54 45.7166C1444.47 44.9687 1444.25 44.2421 1443.9 43.5799V43.5799ZM1429.55 50.6499C1428.89 49.3172 1427.73 48.2998 1426.33 47.8216C1424.92 47.3434 1423.38 47.4435 1422.05 48.0999C1420.71 48.7563 1419.7 49.9152 1419.22 51.3217C1418.74 52.7283 1418.84 54.2672 1419.5 55.5999C1420.15 56.9326 1421.31 57.95 1422.72 58.4282C1423.42 58.665 1424.15 58.7623 1424.89 58.7145C1425.62 58.6668 1426.34 58.4749 1427 58.1499C1427.66 57.8249 1428.25 57.373 1428.73 56.8202C1429.22 56.2674 1429.59 55.6244 1429.83 54.928C1430.06 54.2316 1430.16 53.4953 1430.11 52.7613C1430.06 52.0272 1429.87 51.3098 1429.55 50.6499V50.6499ZM1415.2 57.7199C1414.88 57.0476 1414.43 56.4452 1413.88 55.9476C1413.33 55.4501 1412.68 55.0674 1411.98 54.8218C1411.28 54.5762 1410.54 54.4727 1409.8 54.5173C1409.05 54.5619 1408.33 54.7537 1407.66 55.0816C1406.99 55.4094 1406.4 55.8667 1405.91 56.4268C1405.42 56.9869 1405.05 57.6386 1404.82 58.344C1404.58 59.0493 1404.49 59.7942 1404.55 60.5352C1404.6 61.2762 1404.81 61.9984 1405.15 62.6599C1405.46 63.3321 1405.91 63.9346 1406.46 64.4321C1407.02 64.9297 1407.66 65.3124 1408.36 65.5579C1409.06 65.8035 1409.81 65.907 1410.55 65.8624C1411.29 65.8178 1412.02 65.626 1412.68 65.2982C1413.35 64.9703 1413.95 64.513 1414.43 63.9529C1414.92 63.3928 1415.29 62.7411 1415.53 62.0358C1415.76 61.3304 1415.85 60.5855 1415.8 59.8446C1415.74 59.1036 1415.54 58.3813 1415.2 57.7199V57.7199ZM1400.84 64.7799C1400.51 64.12 1400.06 63.5306 1399.51 63.0453C1398.95 62.56 1398.31 62.1884 1397.62 61.9516C1396.92 61.7148 1396.18 61.6175 1395.45 61.6652C1394.71 61.713 1394 61.9049 1393.34 62.2299C1392.68 62.5549 1392.09 63.0067 1391.6 63.5595C1391.12 64.1123 1390.75 64.7553 1390.51 65.4517C1390.27 66.1482 1390.18 66.8844 1390.22 67.6185C1390.27 68.3525 1390.46 69.07 1390.79 69.7299C1391.11 70.3898 1391.56 70.9792 1392.12 71.4645C1392.67 71.9497 1393.31 72.3214 1394.01 72.5582C1394.71 72.795 1395.44 72.8923 1396.18 72.8445C1396.91 72.7968 1397.63 72.6049 1398.29 72.2799C1398.95 71.9549 1399.54 71.503 1400.02 70.9502C1400.51 70.3974 1400.88 69.7544 1401.12 69.058C1401.35 68.3616 1401.45 67.6253 1401.4 66.8913C1401.35 66.1572 1401.16 65.4398 1400.84 64.7799V64.7799Z"/><path fill="#007CF0" d="M79.7876 67.1607C93.6835 67.1607 104.948 55.8958 104.948 41.9998C104.948 28.1038 93.6835 16.8389 79.7876 16.8389C65.8916 16.8389 54.6266 28.1038 54.6266 41.9998C54.6266 55.8958 65.8916 67.1607 79.7876 67.1607Z"/><path stroke="#007CF0" stroke-dasharray="4 4" d="M596.098 555.63L595.638 542.83L608.028 539.57L607.568 526.78L619.948 523.52L619.487 510.72L631.878 507.46M602.528 560.4L602.068 547.6L614.448 544.34L613.987 531.55L626.378 528.29L625.908 515.49L638.297 512.23M608.948 565.17L608.487 552.37L620.867 549.11L620.408 536.32L632.797 533.06L632.338 520.26L644.718 517"/><path stroke="#007CF0" stroke-dasharray="2 2" stroke-width="1.16" d="M896.575 256.325C895.995 255.873 895.332 255.539 894.623 255.343C893.914 255.147 893.174 255.092 892.444 255.182C891.714 255.272 891.009 255.505 890.369 255.868C889.73 256.23 889.167 256.715 888.715 257.295C888.263 257.875 887.929 258.538 887.733 259.247C887.537 259.956 887.482 260.696 887.572 261.426C887.662 262.156 887.895 262.861 888.258 263.501C888.62 264.14 889.105 264.703 889.685 265.155C890.265 265.607 890.928 265.941 891.637 266.137C892.346 266.333 893.086 266.388 893.816 266.298C894.546 266.208 895.251 265.975 895.891 265.612C896.53 265.25 897.093 264.765 897.545 264.185C897.997 263.605 898.331 262.942 898.527 262.233C898.723 261.524 898.778 260.784 898.688 260.054C898.598 259.324 898.365 258.619 898.002 257.979C897.64 257.34 897.155 256.777 896.575 256.325V256.325ZM886.735 268.945C885.564 268.031 884.078 267.62 882.604 267.802C881.13 267.984 879.789 268.744 878.875 269.915C877.961 271.086 877.55 272.572 877.732 274.046C877.914 275.52 878.674 276.861 879.845 277.775C880.425 278.227 881.088 278.561 881.797 278.757C882.506 278.953 883.246 279.008 883.976 278.918C884.706 278.828 885.411 278.595 886.051 278.232C886.69 277.87 887.253 277.385 887.705 276.805C888.157 276.225 888.491 275.562 888.687 274.853C888.883 274.144 888.938 273.404 888.848 272.674C888.758 271.944 888.525 271.239 888.162 270.599C887.8 269.96 887.315 269.397 886.735 268.945V268.945ZM876.885 281.555C876.305 281.103 875.642 280.769 874.933 280.573C874.224 280.377 873.484 280.322 872.754 280.412C872.024 280.502 871.319 280.735 870.679 281.098C870.04 281.46 869.477 281.945 869.025 282.525C868.573 283.105 868.239 283.768 868.043 284.477C867.847 285.186 867.792 285.926 867.882 286.656C867.972 287.386 868.205 288.091 868.568 288.731C868.93 289.37 869.415 289.933 869.995 290.385C871.166 291.299 872.652 291.71 874.126 291.528C875.6 291.346 876.941 290.586 877.855 289.415C878.769 288.244 879.18 286.758 878.998 285.284C878.816 283.81 878.056 282.469 876.885 281.555V281.555ZM867.045 294.165C865.874 293.251 864.388 292.84 862.914 293.022C861.44 293.204 860.099 293.964 859.185 295.135C858.271 296.306 857.86 297.792 858.042 299.266C858.224 300.74 858.984 302.081 860.155 302.995C860.735 303.447 861.398 303.781 862.107 303.977C862.816 304.173 863.556 304.228 864.286 304.138C865.016 304.048 865.721 303.815 866.361 303.452C867 303.09 867.563 302.605 868.015 302.025C868.467 301.445 868.801 300.782 868.997 300.073C869.193 299.364 869.248 298.624 869.158 297.894C869.068 297.164 868.835 296.459 868.472 295.819C868.11 295.18 867.625 294.617 867.045 294.165V294.165ZM903.645 221.255C903.065 220.803 902.402 220.469 901.693 220.273C900.984 220.077 900.244 220.022 899.514 220.112C898.784 220.202 898.079 220.435 897.439 220.798C896.8 221.16 896.237 221.645 895.785 222.225C895.333 222.805 894.999 223.468 894.803 224.177C894.607 224.886 894.552 225.626 894.642 226.356C894.732 227.086 894.965 227.791 895.328 228.431C895.69 229.07 896.175 229.633 896.755 230.085C897.926 230.999 899.412 231.41 900.886 231.228C902.36 231.046 903.701 230.286 904.615 229.115C905.529 227.944 905.94 226.458 905.758 224.984C905.576 223.51 904.816 222.169 903.645 221.255V221.255ZM893.805 233.875C892.634 232.961 891.148 232.55 889.674 232.732C888.2 232.914 886.859 233.674 885.945 234.845C885.031 236.016 884.62 237.502 884.802 238.976C884.984 240.45 885.744 241.791 886.915 242.705C887.495 243.157 888.158 243.491 888.867 243.687C889.576 243.883 890.316 243.938 891.046 243.848C891.776 243.758 892.481 243.525 893.121 243.162C893.76 242.8 894.323 242.315 894.775 241.735C895.227 241.155 895.561 240.492 895.757 239.783C895.953 239.074 896.008 238.334 895.918 237.604C895.828 236.874 895.595 236.169 895.232 235.529C894.87 234.89 894.385 234.327 893.805 233.875V233.875ZM883.965 246.485C883.385 246.033 882.722 245.699 882.013 245.503C881.304 245.307 880.564 245.252 879.834 245.342C879.104 245.432 878.399 245.665 877.759 246.028C877.12 246.39 876.557 246.875 876.105 247.455C875.653 248.035 875.319 248.698 875.123 249.407C874.927 250.116 874.872 250.856 874.962 251.586C875.052 252.316 875.285 253.021 875.648 253.661C876.01 254.3 876.495 254.863 877.075 255.315C877.655 255.767 878.318 256.101 879.027 256.297C879.736 256.493 880.476 256.548 881.206 256.458C881.936 256.368 882.641 256.135 883.281 255.772C883.92 255.41 884.483 254.925 884.935 254.345C885.387 253.765 885.721 253.102 885.917 252.393C886.113 251.684 886.168 250.944 886.078 250.214C885.988 249.484 885.755 248.779 885.392 248.139C885.03 247.5 884.545 246.937 883.965 246.485V246.485ZM874.115 259.095C873.535 258.643 872.872 258.309 872.163 258.113C871.454 257.917 870.714 257.862 869.984 257.952C869.254 258.042 868.549 258.275 867.909 258.638C867.27 259 866.707 259.485 866.255 260.065C865.803 260.645 865.469 261.308 865.273 262.017C865.077 262.726 865.022 263.466 865.112 264.196C865.202 264.926 865.435 265.631 865.798 266.271C866.16 266.91 866.645 267.473 867.225 267.925C867.805 268.377 868.468 268.711 869.177 268.907C869.886 269.103 870.626 269.158 871.356 269.068C872.086 268.978 872.791 268.745 873.431 268.382C874.07 268.02 874.633 267.535 875.085 266.955C875.537 266.375 875.871 265.712 876.067 265.003C876.263 264.294 876.318 263.554 876.228 262.824C876.138 262.094 875.905 261.389 875.542 260.749C875.18 260.11 874.695 259.547 874.115 259.095V259.095ZM910.725 186.185C909.554 185.271 908.068 184.86 906.594 185.042C905.12 185.224 903.779 185.984 902.865 187.155C901.951 188.326 901.54 189.812 901.722 191.286C901.904 192.76 902.664 194.101 903.835 195.015C904.415 195.467 905.078 195.801 905.787 195.997C906.496 196.193 907.236 196.248 907.966 196.158C908.696 196.068 909.401 195.835 910.041 195.472C910.68 195.11 911.243 194.625 911.695 194.045C912.147 193.465 912.481 192.802 912.677 192.093C912.873 191.384 912.928 190.644 912.838 189.914C912.748 189.184 912.515 188.479 912.152 187.839C911.79 187.2 911.305 186.637 910.725 186.185V186.185ZM900.885 198.805C900.305 198.352 899.642 198.018 898.933 197.821C898.224 197.624 897.483 197.569 896.753 197.659C896.022 197.748 895.317 197.981 894.676 198.343C894.036 198.705 893.473 199.19 893.02 199.77C892.567 200.35 892.233 201.013 892.036 201.722C891.839 202.431 891.784 203.172 891.874 203.902C891.963 204.633 892.196 205.338 892.558 205.979C892.92 206.619 893.405 207.182 893.985 207.635C894.565 208.088 895.228 208.423 895.937 208.619C896.646 208.816 897.387 208.871 898.117 208.781C898.848 208.692 899.553 208.459 900.194 208.097C900.834 207.735 901.397 207.25 901.85 206.67C902.303 206.09 902.638 205.427 902.834 204.718C903.031 204.009 903.086 203.268 902.996 202.538C902.907 201.807 902.674 201.102 902.312 200.461C901.95 199.821 901.465 199.258 900.885 198.805ZM891.035 211.415C889.864 210.501 888.378 210.09 886.904 210.272C885.43 210.454 884.089 211.214 883.175 212.385C882.261 213.556 881.85 215.042 882.032 216.516C882.214 217.99 882.974 219.331 884.145 220.245C884.725 220.697 885.388 221.031 886.097 221.227C886.806 221.423 887.546 221.478 888.276 221.388C889.006 221.298 889.711 221.065 890.351 220.702C890.99 220.34 891.553 219.855 892.005 219.275C892.457 218.695 892.791 218.032 892.987 217.323C893.183 216.614 893.238 215.874 893.148 215.144C893.058 214.414 892.825 213.709 892.462 213.069C892.1 212.43 891.615 211.867 891.035 211.415V211.415ZM881.195 224.025C880.615 223.573 879.952 223.239 879.243 223.043C878.534 222.847 877.794 222.792 877.064 222.882C876.334 222.972 875.629 223.205 874.989 223.568C874.35 223.93 873.787 224.415 873.335 224.995C872.883 225.575 872.549 226.238 872.353 226.947C872.157 227.656 872.102 228.396 872.192 229.126C872.282 229.856 872.515 230.561 872.878 231.201C873.24 231.84 873.725 232.403 874.305 232.855C875.476 233.769 876.962 234.18 878.436 233.998C879.91 233.816 881.251 233.056 882.165 231.885C883.079 230.714 883.49 229.228 883.308 227.754C883.126 226.28 882.366 224.939 881.195 224.025Z"/><path stroke="#2594FC" d="M330.368 73.1598L336.988 84.1198L327.748 92.9798L334.368 103.95L325.128 112.81L331.748 123.77L322.508 132.64M322.438 72.1098L329.058 83.0698L319.818 91.9398L326.438 102.9L317.198 111.76L323.818 122.73L314.578 131.59M314.508 71.0598L321.128 82.0198L311.888 90.8898L318.508 101.85L309.268 110.71L315.888 121.68L306.648 130.54"/><path stroke="#2594FC" stroke-width="2.99" d="M919.378 428.07L967.068 440.21L912.848 464.515L919.378 428.07Z"/><path stroke="#2594FC" stroke-width="1.16" d="M157.806 447.961C157.934 448.686 158.204 449.378 158.599 449.998C158.995 450.618 159.508 451.154 160.111 451.576C160.714 451.997 161.394 452.296 162.112 452.455C162.83 452.614 163.572 452.629 164.296 452.501C165.021 452.373 165.713 452.104 166.333 451.709C166.953 451.313 167.489 450.799 167.911 450.197C168.332 449.594 168.631 448.914 168.79 448.196C168.949 447.478 168.964 446.736 168.836 446.011C168.708 445.287 168.439 444.595 168.043 443.975C167.648 443.355 167.134 442.819 166.532 442.397C165.929 441.976 165.249 441.677 164.531 441.518C163.813 441.359 163.071 441.343 162.346 441.471C161.622 441.599 160.93 441.869 160.31 442.264C159.69 442.66 159.154 443.173 158.732 443.776C158.311 444.379 158.012 445.059 157.853 445.777C157.694 446.495 157.678 447.237 157.806 447.961ZM173.556 445.171C173.685 445.896 173.955 446.587 174.351 447.207C174.747 447.827 175.262 448.363 175.865 448.784C176.468 449.205 177.148 449.503 177.866 449.662C178.585 449.82 179.327 449.835 180.051 449.706C180.776 449.578 181.467 449.308 182.087 448.912C182.707 448.516 183.243 448.001 183.664 447.398C184.085 446.795 184.383 446.115 184.542 445.397C184.7 444.678 184.715 443.936 184.586 443.211C184.326 441.749 183.496 440.449 182.278 439.599C181.06 438.748 179.554 438.416 178.091 438.676C176.629 438.936 175.329 439.767 174.479 440.985C173.628 442.203 173.296 443.709 173.556 445.171V445.171ZM189.316 442.371C189.418 443.119 189.67 443.838 190.056 444.485C190.443 445.133 190.956 445.695 191.565 446.14C192.175 446.584 192.868 446.901 193.602 447.071C194.337 447.241 195.098 447.261 195.841 447.129C196.583 446.998 197.292 446.718 197.923 446.306C198.555 445.894 199.097 445.359 199.517 444.733C199.937 444.106 200.226 443.401 200.367 442.661C200.507 441.92 200.497 441.158 200.336 440.421C200.235 439.674 199.983 438.955 199.596 438.308C199.21 437.66 198.697 437.097 198.087 436.653C197.478 436.209 196.785 435.892 196.051 435.722C195.316 435.552 194.554 435.532 193.812 435.664C193.069 435.795 192.361 436.075 191.729 436.487C191.098 436.899 190.556 437.434 190.136 438.06C189.716 438.687 189.427 439.391 189.286 440.132C189.145 440.873 189.156 441.635 189.316 442.371V442.371ZM205.066 439.581C205.326 441.044 206.157 442.344 207.375 443.194C207.978 443.615 208.658 443.913 209.376 444.072C210.095 444.23 210.837 444.245 211.561 444.116C212.286 443.988 212.977 443.718 213.597 443.322C214.217 442.926 214.753 442.411 215.174 441.808C215.595 441.205 215.893 440.525 216.052 439.807C216.21 439.088 216.225 438.346 216.096 437.621C215.836 436.159 215.006 434.859 213.788 434.009C212.57 433.158 211.064 432.827 209.601 433.086C208.139 433.346 206.839 434.177 205.989 435.395C205.138 436.613 204.806 438.119 205.066 439.581V439.581ZM129.086 469.311C129.215 470.036 129.485 470.727 129.881 471.347C130.277 471.967 130.792 472.503 131.395 472.924C131.998 473.345 132.678 473.643 133.396 473.802C134.115 473.96 134.857 473.975 135.581 473.846C136.306 473.718 136.997 473.448 137.617 473.052C138.237 472.656 138.773 472.141 139.194 471.538C139.615 470.935 139.913 470.255 140.072 469.537C140.23 468.818 140.245 468.076 140.116 467.351C139.988 466.627 139.718 465.935 139.322 465.316C138.926 464.696 138.411 464.16 137.808 463.739C137.205 463.318 136.525 463.019 135.806 462.861C135.088 462.703 134.346 462.688 133.621 462.816C132.897 462.945 132.205 463.215 131.585 463.611C130.966 464.007 130.43 464.522 130.009 465.125C129.588 465.728 129.289 466.408 129.131 467.126C128.973 467.845 128.958 468.587 129.086 469.311ZM144.846 466.511C144.974 467.236 145.244 467.928 145.639 468.548C146.035 469.168 146.548 469.704 147.151 470.126C147.754 470.547 148.434 470.846 149.152 471.005C149.87 471.164 150.612 471.179 151.336 471.051C152.061 470.923 152.753 470.654 153.373 470.259C153.993 469.863 154.529 469.349 154.951 468.747C155.372 468.144 155.671 467.464 155.83 466.746C155.989 466.028 156.004 465.286 155.876 464.561C155.618 463.099 154.789 461.799 153.572 460.947C152.355 460.096 150.849 459.763 149.386 460.021C147.924 460.28 146.624 461.109 145.772 462.326C144.921 463.543 144.588 465.049 144.846 466.511V466.511ZM160.596 463.721C160.856 465.184 161.687 466.484 162.905 467.334C164.123 468.185 165.629 468.516 167.091 468.256C168.554 467.997 169.854 467.166 170.704 465.948C171.555 464.73 171.886 463.224 171.626 461.761C171.498 461.037 171.228 460.345 170.832 459.726C170.436 459.106 169.921 458.57 169.318 458.149C168.715 457.728 168.035 457.429 167.316 457.271C166.598 457.113 165.856 457.098 165.131 457.226C164.407 457.355 163.715 457.625 163.096 458.021C162.476 458.417 161.94 458.932 161.519 459.535C161.098 460.138 160.799 460.818 160.641 461.536C160.483 462.255 160.468 462.997 160.596 463.721V463.721ZM176.356 460.921C176.458 461.669 176.71 462.387 177.096 463.035C177.483 463.683 177.996 464.245 178.605 464.69C179.215 465.134 179.908 465.451 180.642 465.621C181.377 465.791 182.138 465.811 182.881 465.679C183.623 465.548 184.332 465.268 184.963 464.856C185.595 464.444 186.137 463.909 186.557 463.283C186.977 462.656 187.266 461.951 187.407 461.211C187.547 460.47 187.537 459.708 187.376 458.971C187.275 458.224 187.023 457.505 186.636 456.858C186.25 456.21 185.737 455.647 185.127 455.203C184.518 454.759 183.825 454.442 183.091 454.272C182.356 454.102 181.595 454.082 180.852 454.213C180.109 454.345 179.401 454.625 178.769 455.037C178.138 455.449 177.596 455.984 177.176 456.61C176.756 457.237 176.467 457.941 176.326 458.682C176.185 459.423 176.196 460.185 176.356 460.921Z"/><path stroke="#007CF0" stroke-width="1.01" d="M221.298 244.99L234.088 245.5L236.408 258.1L249.198 258.6L251.518 271.2L264.308 271.71L266.628 284.3M216.048 251.04L228.848 251.54L231.158 264.14L243.958 264.65L246.268 277.24L259.068 277.75L261.378 290.35"/><path stroke="#007CF0" stroke-dasharray="2 2" d="M1418.98 147.36C1459.12 147.36 1491.66 114.82 1491.66 74.6798C1491.66 34.5399 1459.12 2 1418.98 2C1378.84 2 1346.3 34.5399 1346.3 74.6798C1346.3 114.82 1378.84 147.36 1418.98 147.36Z"/></g><defs><clipPath id="clip0_103_3"><rect width="1440" height="560" fill="#fff"/></clipPath></defs></svg>