<?xml version="1.0" standalone="no"?>
<!DOCTYPE svg PUBLIC "-//W3C//DTD SVG 20010904//EN"
 "http://www.w3.org/TR/2001/REC-SVG-20010904/DTD/svg10.dtd">
<svg version="1.0" xmlns="http://www.w3.org/2000/svg"
 width="460.000000pt" height="460.000000pt" viewBox="0 0 460.000000 460.000000"
 preserveAspectRatio="xMidYMid meet">
<g transform="translate(0.000000,460.000000) scale(0.100000,-0.100000)"
fill="#000000" stroke="none">
<path d="M370 4580 c0 -11 5 -20 10 -20 16 0 11 -29 -8 -48 -15 -15 -16 -21
-5 -30 7 -7 16 -12 20 -11 20 3 21 -3 7 -36 -11 -28 -12 -45 -5 -73 7 -24 7
-40 1 -46 -12 -12 -13 -46 -1 -46 15 0 34 -58 25 -77 -4 -10 -8 -63 -9 -118
-2 -109 14 -182 46 -211 10 -9 19 -23 19 -29 0 -7 10 -15 21 -18 20 -5 21 -10
14 -49 -20 -116 -31 -200 -28 -231 1 -27 -3 -36 -18 -40 -15 -4 -19 -14 -19
-51 0 -34 4 -46 15 -46 18 0 19 -8 2 -51 -13 -35 -16 -182 -3 -210 4 -8 0 -28
-7 -43 -13 -23 -15 -24 -21 -9 -4 10 -9 67 -11 128 -5 134 -20 200 -54 242
-27 34 -45 41 -56 22 -9 -13 3 -61 13 -55 5 3 13 -4 20 -14 10 -16 7 -22 -15
-38 -25 -18 -27 -25 -24 -78 8 -128 5 -163 -14 -184 -10 -11 -25 -20 -34 -19
-11 0 -8 3 6 9 l23 9 -25 48 c-13 26 -33 56 -44 65 -12 11 -22 31 -23 50 -1
18 -2 42 -2 53 -2 29 -26 29 -85 0 -48 -25 -52 -29 -46 -55 4 -16 1 -38 -5
-50 -7 -13 -7 -26 -2 -37 14 -24 3 -51 -22 -55 -20 -3 -21 -8 -24 -157 l-3
-154 46 6 c35 5 54 2 82 -13 28 -15 49 -18 88 -14 54 5 75 -3 79 -32 2 -12 14
-21 36 -25 18 -4 38 -15 44 -26 6 -10 16 -27 23 -38 27 -44 73 -141 73 -155 1
-8 9 -33 20 -55 11 -22 19 -49 20 -61 0 -11 5 -25 12 -32 7 -7 8 -12 3 -12 -4
0 -1 -8 7 -17 35 -42 50 -106 53 -236 2 -71 5 -131 7 -133 3 -2 1 -27 -3 -56
-5 -41 -3 -59 9 -78 10 -16 17 -53 18 -105 4 -106 19 -181 61 -294 28 -77 152
-339 233 -491 28 -52 111 -174 121 -178 5 -2 9 -10 9 -18 0 -8 7 -17 15 -20
20 -8 75 -90 75 -113 0 -9 5 -22 11 -28 14 -14 4 -47 -11 -38 -5 3 -10 2 -10
-3 0 -6 -14 -7 -37 -1 -21 5 -57 9 -80 9 -36 0 -43 -3 -43 -19 0 -28 -18 -36
-39 -17 -16 14 -23 15 -46 4 -24 -11 -29 -10 -40 6 -10 14 -21 16 -44 11 -31
-7 -39 -19 -21 -30 6 -3 10 -15 10 -25 0 -20 -23 -29 -65 -28 -11 1 -52 -2
-91 -6 -55 -5 -78 -3 -103 10 -52 26 -105 -8 -69 -44 18 -18 -4 -34 -35 -27
-29 8 -47 26 -51 49 -1 8 -10 24 -21 35 -21 24 -45 13 -45 -20 0 -11 -10 -23
-24 -29 -13 -5 -31 -23 -40 -40 -14 -30 -14 -31 2 -25 11 4 13 3 7 -3 -15 -15
-130 7 -154 29 -22 21 -58 24 -81 9 -13 -9 -9 -16 22 -44 48 -42 49 -60 3 -54
l-35 4 0 -153 0 -153 2300 0 2300 0 0 2300 0 2300 -2115 0 c-2108 0 -2115 0
-2115 -20z m2345 -438 c-6 -7 -35 18 -35 31 0 5 9 2 20 -8 11 -10 18 -20 15
-23z m-81 12 c18 -18 20 -30 6 -39 -5 -3 -10 -12 -10 -18 0 -8 3 -7 9 2 7 11
11 9 20 -8 14 -25 29 -27 46 -4 7 9 17 13 24 9 9 -6 9 -11 1 -22 -7 -7 -10
-19 -7 -26 4 -8 6 -7 6 5 1 10 9 17 21 17 22 0 27 -15 8 -23 -7 -3 -3 -6 10
-6 12 -1 22 -7 22 -15 0 -7 8 -24 19 -37 10 -13 16 -29 14 -36 -2 -6 1 -14 6
-18 6 -3 11 -15 11 -26 0 -10 5 -19 10 -19 6 0 10 11 10 24 0 40 16 38 45 -4
15 -22 34 -40 41 -40 9 0 14 -12 14 -35 0 -32 7 -40 33 -36 4 0 7 -7 7 -17 0
-10 4 -22 8 -27 10 -12 52 -127 52 -144 0 -26 -17 -7 -35 40 -13 32 -28 54
-42 60 -12 4 -24 20 -28 38 -4 17 -11 31 -17 31 -12 0 0 -82 14 -91 5 -3 11
-21 13 -40 11 -87 30 -114 57 -85 11 11 16 10 32 -8 10 -11 23 -33 28 -48 6
-16 14 -28 19 -28 5 0 9 -18 9 -40 0 -42 -14 -54 -25 -21 -3 11 -12 22 -19 24
-8 3 -17 19 -21 36 -4 17 -13 31 -21 31 -15 0 -19 -16 -6 -22 5 -1 12 -15 16
-30 5 -21 3 -28 -9 -28 -8 0 -15 -5 -15 -10 0 -6 11 -8 25 -4 21 5 25 2 27
-15 0 -12 1 -27 2 -33 1 -7 -5 -12 -12 -10 -10 2 -10 -2 0 -18 7 -10 9 -22 5
-26 -11 -11 -68 48 -63 63 3 7 -3 29 -14 49 -11 19 -18 39 -15 45 4 5 -1 9 -9
9 -18 0 -22 -45 -6 -55 10 -6 14 -55 5 -55 -11 0 -66 31 -85 48 -21 17 -27 62
-9 62 5 0 7 5 4 11 -4 6 -13 8 -20 5 -7 -2 -15 3 -18 13 -4 16 -12 18 -56 13
-34 -3 -51 -1 -51 7 0 6 9 11 19 11 11 0 23 5 26 11 4 6 19 7 36 4 33 -8 33
-9 18 34 -7 19 -22 36 -37 42 -33 13 -48 -2 -30 -30 11 -18 11 -23 -2 -31 -23
-15 -60 -12 -60 4 0 8 7 17 17 20 15 6 15 8 -2 20 -16 12 -16 13 -1 19 21 8
22 67 1 106 -12 25 -12 31 -1 40 11 9 15 9 18 0 2 -7 8 -6 17 5 12 14 11 16
-8 16 -11 0 -31 10 -43 22 l-22 22 -7 -28 c-6 -20 -2 -39 12 -64 24 -46 26
-112 3 -112 -8 0 -13 -4 -9 -9 5 -9 -13 -27 -20 -19 -2 2 0 30 4 62 7 49 5 59
-10 69 -13 8 -15 14 -6 28 14 23 11 25 -38 32 -22 4 -34 4 -26 0 11 -4 11 -7
0 -13 -10 -7 -10 -11 0 -24 13 -16 17 -14 -64 -31 -18 -4 -25 -1 -25 10 0 12
-6 15 -20 10 -23 -7 -26 6 -7 36 10 17 9 23 -8 37 -12 9 -25 26 -30 37 -7 18
-9 17 -16 -10 -5 -20 -6 -13 -3 23 6 56 -4 66 -37 36 -17 -15 -39 -12 -39 5 0
4 9 17 20 29 11 12 23 35 27 52 3 17 15 36 26 41 18 10 19 9 14 -20 -4 -17 -5
-31 -3 -31 18 0 36 15 36 31 0 10 5 19 10 19 6 0 10 -13 10 -30 0 -33 3 -35
31 -20 23 13 25 38 4 46 -8 4 -15 15 -15 25 0 10 -7 19 -15 19 -9 0 -15 9 -15
25 0 22 3 24 19 15 25 -13 34 -13 26 0 -3 6 -2 10 3 10 5 0 12 -9 15 -21 3
-11 15 -23 26 -26 12 -3 21 -12 21 -19 0 -8 7 -14 16 -14 13 0 15 7 9 43 -4
23 -11 44 -16 45 -5 2 -9 10 -9 18 0 19 54 18 74 -2z m151 -54 c3 -5 2 -10 -4
-10 -5 0 -13 5 -16 10 -3 6 -2 10 4 10 5 0 13 -4 16 -10z m73 -60 c12 -12 22
-25 22 -30 0 -6 5 -10 12 -10 9 0 9 3 0 12 -18 18 -15 33 3 18 9 -7 14 -18 12
-24 -3 -6 2 -19 11 -28 14 -16 13 -18 -1 -18 -9 0 -19 5 -22 10 -4 6 -10 8
-14 5 -11 -6 -37 24 -50 58 -12 32 -3 35 27 7z m-510 -17 c-5 -25 -28 -28 -28
-4 0 12 6 21 16 21 9 0 14 -7 12 -17z m-28 -53 c0 -5 -5 -10 -11 -10 -5 0 -7
5 -4 10 3 6 8 10 11 10 2 0 4 -4 4 -10z m683 -69 c15 -30 13 -41 -8 -41 -16 0
-39 45 -31 59 12 18 24 13 39 -18z m-366 -185 c-5 -14 -67 -15 -68 -1 0 12 40
24 59 17 7 -2 11 -10 9 -16z m463 -12 c0 -8 -5 -12 -10 -9 -6 4 -8 11 -5 16 9
14 15 11 15 -7z m-588 -64 c4 0 8 -5 8 -10 0 -6 -8 -5 -20 2 -11 7 -20 22 -19
33 0 19 1 19 11 -2 6 -13 15 -23 20 -23z m495 -52 c-3 -8 -6 -5 -6 6 -1 11 2
17 5 13 3 -3 4 -12 1 -19z m-273 -127 c-22 -21 -27 -21 -18 3 3 9 13 16 22 16
13 0 12 -3 -4 -19z m396 -112 c0 -27 -17 -32 -24 -6 -11 40 -8 51 9 37 8 -7
15 -21 15 -31z m-250 21 c0 -5 -6 -10 -14 -10 -8 0 -18 5 -21 10 -3 6 3 10 14
10 12 0 21 -4 21 -10z m985 -310 c3 -5 1 -10 -4 -10 -6 0 -11 5 -11 10 0 6 2
10 4 10 3 0 8 -4 11 -10z m-3362 -48 l21 -23 -33 3 c-27 2 -31 6 -27 23 3 11
6 27 7 35 0 13 1 13 6 0 3 -8 15 -25 26 -38z m3397 28 c0 -5 -2 -10 -4 -10 -3
0 -8 5 -11 10 -3 6 -1 10 4 10 6 0 11 -4 11 -10z m-3412 -77 c16 -16 16 -16 0
-11 -10 4 -19 1 -23 -10 -6 -16 -8 -15 -20 2 -26 35 11 51 43 19z m2178 -660
c-10 -10 -19 5 -10 18 6 11 8 11 12 0 2 -7 1 -15 -2 -18z m63 -10 c1 14 31 27
31 13 0 -2 3 -11 6 -19 3 -8 -2 -17 -11 -21 -22 -8 -54 14 -47 33 4 12 7 11
13 -5 7 -17 8 -17 8 -1z m-59 -17 c0 -2 3 -11 6 -19 7 -19 -27 -32 -38 -15
-14 22 -9 38 12 38 11 0 20 -2 20 -4z m865 -1655 c3 -5 1 -12 -5 -16 -5 -3
-10 1 -10 9 0 18 6 21 15 7z m-8 -83 c-3 -8 -6 -5 -6 6 -1 11 2 17 5 13 3 -3
4 -12 1 -19z m103 -29 l25 -21 -27 5 c-16 2 -28 0 -28 -5 0 -5 -5 -6 -12 -2
-9 6 -9 9 0 12 20 6 14 20 -10 25 -22 4 -21 4 2 5 14 1 36 -8 50 -19z m0 -48
c0 -10 -35 -21 -65 -20 -15 0 -13 3 10 14 36 16 55 18 55 6z m70 -20 c0 -6 -4
-13 -10 -16 -5 -3 -10 1 -10 9 0 9 5 16 10 16 6 0 10 -4 10 -9z m-183 -103
c-3 -8 -6 -5 -6 6 -1 11 2 17 5 13 3 -3 4 -12 1 -19z m53 -17 c0 -22 4 -41 10
-43 5 -2 6 -9 1 -17 -17 -26 -36 7 -32 55 4 55 21 58 21 5z m137 -47 c-3 -3
-12 -4 -19 -1 -8 3 -5 6 6 6 11 1 17 -2 13 -5z m103 -34 c0 -22 -5 -40 -11
-40 -7 0 -8 -13 -4 -39 5 -30 3 -40 -10 -45 -9 -3 -15 -15 -14 -28 4 -46 0
-56 -22 -51 -11 3 -18 11 -15 18 2 7 1 16 -4 21 -5 5 -6 37 -3 72 l6 63 28 -6
c28 -6 29 -5 29 34 0 23 5 41 10 41 6 0 10 -18 10 -40z m-50 20 c0 -5 -4 -10
-10 -10 -5 0 -10 5 -10 10 0 6 5 10 10 10 6 0 10 -4 10 -10z m-66 -10 c32 -12
33 -24 4 -38 -18 -8 -19 -11 -5 -11 13 -1 17 -10 17 -41 0 -39 -1 -40 -34 -40
-33 0 -34 1 -38 45 -2 36 0 46 14 51 28 9 21 20 -19 31 l-38 10 37 2 c20 0 48
-3 62 -9z"/>
<path d="M2737 4024 c-8 -8 1 -24 14 -24 5 0 9 7 9 15 0 15 -12 20 -23 9z"/>
<path d="M2520 4012 c0 -14 11 -21 26 -15 21 8 17 23 -6 23 -11 0 -20 -4 -20
-8z"/>
<path d="M2657 3984 c-13 -13 -7 -24 14 -24 11 0 19 5 17 12 -5 14 -22 21 -31
12z"/>
<path d="M2768 3963 c6 -2 18 -2 25 0 6 3 1 5 -13 5 -14 0 -19 -2 -12 -5z"/>
<path d="M2526 3934 c-4 -15 -4 -29 -1 -32 3 -3 8 4 12 16 3 12 9 22 14 22 5
0 9 5 9 10 0 22 -28 8 -34 -16z"/>
<path d="M2715 3920 c3 -5 8 -10 11 -10 2 0 4 5 4 10 0 6 -5 10 -11 10 -5 0
-7 -4 -4 -10z"/>
<path d="M2740 3890 c0 -5 7 -10 16 -10 8 0 12 5 9 10 -3 6 -10 10 -16 10 -5
0 -9 -4 -9 -10z"/>
<path d="M2880 3858 c1 -20 27 -51 40 -46 7 2 1 15 -14 31 -14 16 -26 22 -26
15z"/>
<path d="M2710 3845 c0 -9 6 -12 15 -9 8 4 15 10 15 15 0 5 -7 9 -15 9 -8 0
-15 -7 -15 -15z"/>
<path d="M2480 3780 c0 -13 7 -20 20 -20 11 0 20 4 20 10 0 5 -9 14 -20 20
-17 9 -20 8 -20 -10z"/>
<path d="M2737 3753 c-7 -11 10 -40 18 -31 4 4 3 14 -3 24 -5 9 -12 12 -15 7z"/>
<path d="M2905 3589 c9 -42 14 -51 25 -44 10 6 -7 62 -22 71 -7 4 -8 -5 -3
-27z"/>
<path d="M3000 3530 c0 -5 5 -10 11 -10 5 0 7 5 4 10 -3 6 -8 10 -11 10 -2 0
-4 -4 -4 -10z"/>
<path d="M2945 3520 c3 -5 8 -10 11 -10 2 0 4 5 4 10 0 6 -5 10 -11 10 -5 0
-7 -4 -4 -10z"/>
<path d="M3765 147 c-4 -10 -5 -21 -1 -24 10 -10 18 4 13 24 -4 17 -4 17 -12
0z"/>
<path d="M0 4213 c0 -35 3 -44 11 -36 18 18 21 83 4 83 -11 0 -15 -13 -15 -47z"/>
<path d="M45 4250 c3 -5 8 -10 11 -10 2 0 4 5 4 10 0 6 -5 10 -11 10 -5 0 -7
-4 -4 -10z"/>
<path d="M0 4077 c0 -73 47 -150 77 -125 17 14 16 33 -1 47 -7 6 -16 24 -19
39 -4 15 -17 41 -31 57 l-25 30 -1 -48z"/>
<path d="M0 3441 l0 -51 25 16 c31 20 31 26 0 60 l-25 27 0 -52z"/>
<path d="M153 2755 c-7 -8 -13 -17 -13 -20 0 -10 29 -5 36 6 10 17 -10 29 -23
14z"/>
<path d="M0 2370 c0 -11 9 -29 20 -40 19 -19 21 -19 50 -2 36 20 37 26 8 46
-33 24 -78 21 -78 -4z"/>
<path d="M37 1419 c-36 -21 -40 -47 -11 -84 15 -20 40 -45 55 -56 l29 -20 0
70 c0 67 -1 71 -28 85 -19 10 -33 11 -45 5z"/>
<path d="M63 848 c-34 -42 -35 -57 -6 -96 15 -20 32 -40 37 -44 12 -8 36 1 36
16 0 6 12 22 25 35 26 24 32 55 15 81 -5 8 -10 11 -10 6 0 -5 -6 -4 -12 1 -20
15 -74 15 -85 1z"/>
<path d="M835 610 c-3 -5 1 -10 9 -10 9 0 16 5 16 10 0 6 -4 10 -9 10 -6 0
-13 -4 -16 -10z"/>
<path d="M598 573 c7 -3 16 -2 19 1 4 3 -2 6 -13 5 -11 0 -14 -3 -6 -6z"/>
</g>
</svg>
